<?xml version="1.0" ?><svg viewBox="0 0 64 64" xmlns="http://www.w3.org/2000/svg"><title/><g data-name="Layer 3" id="Layer_3"><path d="M47.81,31.5H47.6L48.5,27V17.24a.14.14,0,0,0-.21-.11l-2.61,1.75a.13.13,0,0,1-.2-.1l-.95-8.55a.13.13,0,0,0-.21-.1l-3.67,2.75a.12.12,0,0,1-.2-.07L38.58,6.27a.14.14,0,0,0-.24,0l-3.72,5.59a.14.14,0,0,1-.23,0L30.6,5.17a.13.13,0,0,0-.22,0l-5.76,7.68a.14.14,0,0,1-.22,0L21.66,8.27a.13.13,0,0,0-.24,0L18.56,19.77a.13.13,0,0,1-.22.06l-2.61-2.61a.14.14,0,0,0-.23.09V27l.9,4.49h-.21a1.69,1.69,0,0,0-1.69,1.69V39a4.51,4.51,0,0,0,3.86,4.44c.11.25.22.5.34.74a10.57,10.57,0,0,0,5.18,4.95,31.7,31.7,0,0,0,3.35,1.25c.42.13.84.23,1.27.33v2a1.14,1.14,0,0,1-1.06,1.13l-7,.47a4.27,4.27,0,0,0-4,4.24v4h31v-4a4.27,4.27,0,0,0-4-4.24l-7-.47a1.14,1.14,0,0,1-1.06-1.13v-2a15.88,15.88,0,0,0,1.76-.49,31.68,31.68,0,0,0,3.3-1.38,10.52,10.52,0,0,0,5.08-5.37A4.52,4.52,0,0,0,49.5,39v-5.8A1.69,1.69,0,0,0,47.81,31.5ZM32,47.94s-4.18-.09-4.29-2.44S32,43.21,32,43.21s4.41-.06,4.29,2.29S32,47.94,32,47.94Zm4.49,6.86,1.43.1c-.3.82-1.53,3.25-5.92,3.32s-5.64-2.47-5.92-3.32l1.43-.1a2.14,2.14,0,0,0,2-2.13V50.89a16.74,16.74,0,0,0,2.45.19h.31a16.81,16.81,0,0,0,2.24-.21v1.8A2.14,2.14,0,0,0,36.49,54.8ZM48.5,39a3.52,3.52,0,0,1-3.24,3.48l-.32,0-.11.29A9.72,9.72,0,0,1,43.63,45c-2.71,2.3-3.78,1.67-3.91,1.57a11.11,11.11,0,0,0-1.19-2.37C36.88,41.62,32,41.74,32,41.74s-4.88-.12-6.53,2.41a10.74,10.74,0,0,0-1.18,2.36s-1.05.91-4-1.62a8.68,8.68,0,0,1-.71-1.17,9.64,9.64,0,0,1-.4-.93l-.12-.29-.31,0A3.51,3.51,0,0,1,15.5,39v-5.8a.69.69,0,0,1,.69-.69h.44L18,37.9a.15.15,0,0,0,.13.1h1.27a.13.13,0,0,0,.13-.14v-6a9.76,9.76,0,0,1,.7-3.62l1-2.5a1,1,0,0,1,1.1-.59L31.48,27h0l10.19-1.85a1,1,0,0,1,1.09.6l1,2.51a9.76,9.76,0,0,1,.7,3.62v6a.13.13,0,0,0,.13.14H45.9a.15.15,0,0,0,.13-.1l1.34-5.4h.44a.69.69,0,0,1,.69.69Z"/><path d="M26,35a1,1,0,0,0-1,1v3a1,1,0,0,0,2,0V36A1,1,0,0,0,26,35Z"/><path d="M38,35a1,1,0,0,0-1,1v3a1,1,0,0,0,2,0V36A1,1,0,0,0,38,35Z"/></g></svg>