<svg xmlns="http://www.w3.org/2000/svg" viewBox="0 0 64 64"><path fill="#ff6243" d="M59 13H49L29 33H40L59.82 13.18A1.891 1.891 0 0 0 59 13zM11 13H5a2.006 2.006 0 0 0-2 2V25L15 13zM53 33h6a2.006 2.006 0 0 0 2-2V24l-9 9z"/><polygon fill="#ff6243" points="27 13 7 33 11 33 17 33 37 13 27 13"/><path fill="#898890" d="M17,13V8a1,1,0,0,0-1-1H12a1,1,0,0,0-1,1v5h6Z"/><rect width="6" height="22" x="11" y="33" fill="#898890"/><path fill="#787680" d="M8,55a1,1,0,0,0-1,1v4a1,1,0,0,0,1,1H20a1,1,0,0,0,1-1V56a1,1,0,0,0-1-1H8Z"/><path fill="#898890" d="M53,13V8a1,1,0,0,0-1-1H48a1,1,0,0,0-1,1v5h6Z"/><polygon fill="#898890" points="47 33 47 55 53 55 53 33 52 33 47 33"/><path fill="#787680" d="M44,55a1,1,0,0,0-1,1v4a1,1,0,0,0,1,1H56a1,1,0,0,0,1-1V56a1,1,0,0,0-1-1H44Z"/><polygon fill="#d8d7da" points="47 13 37 13 17 33 29 33 49 13 47 13"/><path fill="#d8d7da" d="M17 13H15L3 25v6a2.006 2.006 0 0 0 2 2H7L27 13zM59.82 13.18L40 33H52l9-9V15A2 2 0 0 0 59.82 13.18z"/><path fill="#3e3d42" d="M60.253,12.278l-.007,0-.016-.008c-.014-.007-.029-.007-.044-.013A2.87,2.87,0,0,0,59,12H54V8a2,2,0,0,0-2-2H48a2,2,0,0,0-2,2v4H18V8a2,2,0,0,0-2-2H12a2,2,0,0,0-2,2v4H5a3,3,0,0,0-3,3V31a3,3,0,0,0,3,3h5V54H8a2,2,0,0,0-2,2v4a2,2,0,0,0,2,2H20a2,2,0,0,0,2-2V56a2,2,0,0,0-2-2H18V34H46V54H44a2,2,0,0,0-2,2v4a2,2,0,0,0,2,2H56a2,2,0,0,0,2-2V56a2,2,0,0,0-2-2H54V34h5a3,3,0,0,0,3-3V15A3,3,0,0,0,60.253,12.278ZM31.414,32l18-18h8.172l-18,18ZM48,8l4,0v4H48ZM16.586,32H9.414l18-18h7.172ZM12,8l4,0v4H12ZM5,14h7.586L4,22.586V15A1,1,0,0,1,5,14ZM5,32a1,1,0,0,1-1-1V25.414L15.414,14h9.172l-18,18ZM20,60H8V56H20Zm-8-6V34h4V54Zm7.414-22,18-18h9.172l-18,18ZM59.876,14.538a1.009,1.009,0,0,1,.053.116.8.8,0,0,1,.032.081A.976.976,0,0,1,60,15v8.586L51.586,32H42.414ZM56,60H44V56H56Zm-4-6H48V34h4Zm7-22H54.414L60,26.414V31A1,1,0,0,1,59,32Z"/></svg>